#!OML:ASF H:\MichaelJackson\Top Level 1\Subject 1\Session 1\male.ASF
:FULLY-SPECIFIED
:DEGREES
482
root 2.02393 16.4704 -4.05375 9.18393 3.75409 9.77753
lowerback 1.37811 -0.358329 -5.83849
upperback 1.66177 -0.453677 -7.60609
thorax 0.931179 -0.233888 -4.60582
lowerneck -4.09783 -2.34665 1.20508
upperneck 2.58493 -3.40893 5.75112
head 1.59357 -1.5726 1.51336
rclavicle -1.51076e-014 -6.36111e-014
rhumerus -43.0135 5.14833 -98.6406
rradius 56.5219
rwrist -1.80957
rhand -36.4025 -28.6912
rfingers 7.12502
rthumb -9.49822 301.543
lclavicle -1.51076e-014 -6.36111e-014
lhumerus -17.5343 -14.498 81.799
lradius 71.9181
lwrist 20.5672
lhand -16.382 8.44901
lfingers 7.12502
lthumb 9.83163 38.1995
rfemur -54.6704 -2.25179 5.1576
rtibia 45.8367
rfoot 22.9105 4.21844
rtoes 17.8259
lfemur -12.0995 10.4401 -32.6135
ltibia 34.1451
lfoot -29.3131 -8.53863
ltoes 26.1126
483
root 2.01168 16.4411 -3.98143 9.37811 4.4992 9.99982
lowerback 1.34745 -0.454305 -6.03431
upperback 1.59827 -0.58414 -7.56696
thorax 0.880418 -0.299888 -4.45349
lowerneck -4.05651 -2.49161 1.04958
upperneck 2.6175 -3.59636 5.79469
head 1.60629 -1.66663 1.54946
rclavicle 2.92213e-014 8.26944e-014
rhumerus -42.5379 2.82723 -97.7
rradius 55.3143
rwrist -1.17595
rhand -36.3302 -30.1576
rfingers 7.12502
rthumb -9.42845 300.073
lclavicle 2.92213e-014 8.26944e-014
lhumerus -17.0561 -14.5579 81.9602
lradius 71.4578
lwrist 20.0662
lhand -16.2676 8.24869
lfingers 7.12502
lthumb 9.94198 37.9939
rfemur -54.3948 -2.61531 4.90785
rtibia 46.4834
rfoot 20.6195 4.45394
rtoes 15.7993
lfemur -12.0643 10.0335 -32.6093
ltibia 34.4737
lfoot -29.6783 -8.90281
ltoes 26.0601
484
root 1.99944 16.4152 -3.91363 9.57176 5.16183 10.1778
lowerback 1.35387 -0.537401 -6.17198
upperback 1.53891 -0.701096 -7.52951
thorax 0.813667 -0.358255 -4.33536
lowerneck -4.07455 -2.62284 0.912556
upperneck 2.68573 -3.77035 5.83898
head 1.64066 -1.75189 1.58243
rclavicle 1.61016e-014 -4.77083e-015
rhumerus -42.1349 0.498562 -96.7896
rradius 54.1507
rwrist -0.860317
rhand -36.3687 -32.1194
rfingers 7.12502
rthumb -9.46554 298.113
lclavicle 1.61016e-014 -4.77083e-015
lhumerus -16.4384 -14.4917 82.0194
lradius 70.7383
lwrist 19.4521
lhand -16.2772 8.07893
lfingers 7.12502
lthumb 9.93277 37.8246
rfemur -54.1959 -2.95036 4.72851
rtibia 47.0976
rfoot 18.6471 4.53524
rtoes 14.0846
lfemur -12.0462 9.64815 -32.5773
ltibia 34.7697
lfoot -30.0121 -9.18383
ltoes 25.9482
485
root 1.98766 16.3935 -3.85024 9.76202 5.71939 10.3106
lowerback 1.39901 -0.602753 -6.25733
upperback 1.48318 -0.798527 -7.48908
thorax 0.72931 -0.406146 -4.24296
lowerneck -4.15726 -2.73673 0.800785
upperneck 2.77238 -3.92456 5.86386
head 1.6911 -1.82592 1.60459
rclavicle 1.88845e-014 5.08889e-014
rhumerus -41.8276 -1.69435 -95.9408
rradius 53.1188
rwrist -0.961441
rhand -36.5436 -34.2896
rfingers 7.12502
rthumb -9.63431 295.951
lclavicle 1.88845e-014 5.08889e-014
lhumerus -15.7329 -14.2887 82.0033
lradius 69.8451
lwrist 18.7855
lhand -16.3672 7.94701
lfingers 7.12502
lthumb 9.84586 37.6968
rfemur -54.0674 -3.21332 4.59556
rtibia 47.6492
rfoot 17.0388 4.49207
rtoes 12.7728
lfemur -12.0311 9.28005 -32.5293
ltibia 35.0079
lfoot -30.321 -9.31808
ltoes 25.6986
486
root 1.97664 16.3768 -3.791 9.94751 6.16391 10.3859
lowerback 1.47223 -0.652412 -6.29955
upperback 1.43264 -0.877977 -7.42627
thorax 0.634973 -0.444745 -4.15068
lowerneck -4.28466 -2.82802 0.711808
upperneck 2.845 -4.04824 5.8441
head 1.74246 -1.88508 1.60865
rclavicle -1.19271e-015 3.65764e-014
rhumerus -41.607 -3.58201 -95.1805
rradius 52.2676
rwrist -1.50081
rhand -36.9126 -36.3299
rfingers 7.12502
rthumb -9.99036 293.927
lclavicle -1.19271e-015 3.65764e-014
lhumerus -14.999 -13.9462 81.948
lradius 68.8711
lwrist 18.1443
lhand -16.5659 7.85514
lfingers 7.12502
lthumb 9.65423 37.6139
rfemur -54.0023 -3.37907 4.50961
rtibia 48.1267
rfoot 15.771 4.36579
rtoes 11.9009
lfemur -12.012 8.91968 -32.4601
ltibia 35.1771
lfoot -30.6128 -9.26873
ltoes 25.2769
487
root 1.96649 16.3645 -3.73518 10.139 6.49361 10.4174
lowerback 1.55551 -0.689073 -6.32768
upperback 1.38409 -0.941407 -7.33275
thorax 0.537934 -0.475421 -4.03376
lowerneck -4.44354 -2.89028 0.645386
upperneck 2.88088 -4.13015 5.75945
head 1.7839 -1.92504 1.58861
rclavicle -5.36719e-015 3.97569e-014
rhumerus -41.4671 -5.0284 -94.5276
rradius 51.6285
rwrist -2.40119
rhand -37.4484 -38.0793
rfingers 7.12502
rthumb -10.5072 292.203
lclavicle -5.36719e-015 3.97569e-014
lhumerus -14.2923 -13.4958 81.8815
lradius 67.904
lwrist 17.6197
lhand -16.8316 7.78356
lfingers 7.12502
lthumb 9.39783 37.5541
rfemur -53.9996 -3.44315 4.45032
rtibia 48.5358
rfoot 14.7633 4.21183
rtoes 11.2775
lfemur -11.993 8.55561 -32.3894
ltibia 35.2735
lfoot -30.8938 -9.01473
ltoes 24.6621
488
root 1.95695 16.3554 -3.68213 10.3471 6.72133 10.4119
lowerback 1.6363 -0.720084 -6.35637
upperback 1.33175 -0.99776 -7.20447
thorax 0.439387 -0.502733 -3.87992
lowerneck -4.60894 -2.92024 0.607675
upperneck 2.86036 -4.16409 5.59785
head 1.8037 -1.94385 1.54013
rclavicle 4.96962e-015 5.08889e-014
rhumerus -41.3967 -5.92521 -94.0062
rradius 51.2053
rwrist -3.48965
rhand -38.0645 -39.2771
rfingers 7.12502
rthumb -11.1015 291.036
lclavicle 4.96962e-015 5.08889e-014
lhumerus -13.6588 -12.9847 81.8155
lradius 67.0128
lwrist 17.2845
lhand -17.114 7.72024
lfingers 7.12502
lthumb 9.12535 37.5028
rfemur -54.0504 -3.41628 4.40753
rtibia 48.888
rfoot 13.9331 4.04403
rtoes 10.8963
lfemur -11.9838 8.18247 -32.3209
ltibia 35.3032
lfoot -31.1626 -8.57468
ltoes 23.8803
